<svg xmlns="http://www.w3.org/2000/svg" viewBox="0 0 1000 500" fill="none">
  <g stroke="rgba(254,163,39,0.4)" stroke-width="0.8" stroke-linejoin="round">
    <path fill="rgba(254,163,39,0.14)" d="M158,95 L175,82 L198,72 L220,65 L245,58 L268,52 L285,48 L302,45 L318,42 L335,40 L352,38 L368,36 L382,35 L395,34 L408,33 L420,32 L432,31 L445,30 L458,29 L472,28 L485,27 L498,26 L512,25 L525,24 L538,23 L552,22 L565,21 L578,20 L592,19 L605,18 L618,17 L632,16 L645,15 L658,14 L672,13 L685,12 L698,11 L712,10 L725,9 L738,8 L752,7 L765,6 L778,5 L792,4 L805,3 L818,2 L832,1 L845,0 L858,1 L872,2 L885,3 L898,4 L912,5 L925,6 L938,7 L952,8 L965,9 L978,10 L992,11 L1000,12 L1000,25 L992,28 L978,32 L965,36 L952,40 L938,44 L925,48 L912,52 L898,56 L885,60 L872,64 L858,68 L845,72 L832,76 L818,80 L805,84 L792,88 L778,92 L765,96 L752,100 L738,104 L725,108 L712,112 L698,116 L685,120 L672,124 L658,128 L645,132 L632,136 L618,140 L605,144 L592,148 L578,152 L565,156 L552,160 L538,164 L525,168 L512,172 L498,176 L485,180 L472,184 L458,188 L445,192 L432,196 L420,200 L408,204 L395,208 L382,212 L368,216 L352,220 L335,224 L318,228 L302,232 L285,236 L268,240 L245,244 L220,248 L198,252 L175,256 L158,260 L142,264 L128,268 L115,272 L102,276 L88,280 L75,284 L62,288 L48,292 L35,296 L22,300 L8,304 L0,308 L0,295 L8,291 L22,287 L35,283 L48,279 L62,275 L75,271 L88,267 L102,263 L115,259 L128,255 L142,251 L158,247 L175,243 L198,239 L220,235 L245,231 L268,227 L285,223 L302,219 L318,215 L335,211 L352,207 L368,203 L382,199 L395,195 L408,191 L420,187 L432,183 L445,179 L458,175 L472,171 L485,167 L498,163 L512,159 L525,155 L538,151 L552,147 L565,143 L578,139 L592,135 L605,131 L618,127 L632,123 L645,119 L658,115 L672,111 L685,107 L698,103 L712,99 L725,95 L738,91 L752,87 L765,83 L778,79 L792,75 L805,71 L818,67 L832,63 L845,59 L858,55 L872,51 L885,47 L898,43 L912,39 L925,35 L938,31 L952,27 L965,23 L978,19 L992,15 L1000,11 Z" opacity="0"/>
    <!-- North America -->
    <path fill="rgba(254,163,39,0.16)" d="M48,72 L68,58 L92,48 L118,40 L148,34 L178,30 L208,28 L232,30 L248,36 L258,46 L262,58 L258,72 L248,84 L232,94 L208,102 L178,108 L148,112 L118,114 L92,112 L68,106 L52,96 L46,84 Z"/>
    <path fill="rgba(254,163,39,0.16)" d="M72,108 L88,102 L108,100 L128,102 L142,110 L148,122 L146,136 L136,148 L120,156 L100,158 L82,152 L70,140 L66,126 L68,114 Z"/>
    <!-- Greenland -->
    <path fill="rgba(254,163,39,0.12)" d="M248,28 L268,22 L288,24 L298,34 L292,46 L276,52 L258,48 L248,38 Z"/>
    <!-- South America -->
    <path fill="rgba(254,163,39,0.16)" d="M168,168 L182,160 L198,162 L210,172 L218,188 L222,208 L220,228 L212,246 L198,258 L182,264 L168,260 L158,244 L154,222 L156,198 L162,178 Z"/>
    <!-- Europe -->
    <path fill="rgba(254,163,39,0.16)" d="M458,72 L478,66 L498,68 L512,76 L518,88 L514,100 L498,108 L478,110 L462,104 L454,92 L452,80 Z"/>
    <!-- Africa -->
    <path fill="rgba(254,163,39,0.16)" d="M468,118 L488,112 L508,116 L522,132 L528,156 L526,184 L516,210 L500,228 L482,236 L466,230 L456,208 L452,178 L454,148 L462,128 Z"/>
    <!-- Asia -->
    <path fill="rgba(254,163,39,0.16)" d="M518,48 L558,40 L608,36 L668,38 L728,44 L778,54 L818,68 L842,86 L848,106 L838,124 L812,136 L778,140 L738,136 L688,126 L638,114 L588,100 L548,86 L524,72 L512,58 Z"/>
    <!-- India -->
    <path fill="rgba(254,163,39,0.18)" d="M628,108 L648,102 L668,108 L678,124 L674,142 L660,154 L642,156 L628,146 L622,128 L624,114 Z"/>
    <!-- Middle East -->
    <path fill="rgba(254,163,39,0.16)" d="M548,98 L572,92 L598,96 L618,108 L624,124 L616,138 L596,142 L574,136 L556,122 L548,108 Z"/>
    <!-- Southeast Asia -->
    <path fill="rgba(254,163,39,0.14)" d="M718,128 L742,122 L762,130 L768,146 L758,158 L738,162 L720,154 L714,140 Z"/>
    <!-- Japan -->
    <path fill="rgba(254,163,39,0.16)" d="M852,88 L862,82 L868,92 L866,104 L856,110 L848,102 L848,92 Z"/>
    <!-- Australia -->
    <path fill="rgba(254,163,39,0.16)" d="M768,198 L798,192 L828,198 L848,212 L852,228 L838,242 L812,248 L786,244 L768,232 L762,216 Z"/>
    <!-- UK -->
    <path fill="rgba(254,163,39,0.18)" d="M468,78 L476,74 L482,80 L480,88 L472,90 L466,84 Z"/>
    <!-- Scandinavia -->
    <path fill="rgba(254,163,39,0.14)" d="M498,52 L512,46 L522,52 L520,64 L508,68 L496,62 L494,54 Z"/>
    <!-- Indonesia / PNG -->
    <path fill="rgba(254,163,39,0.12)" d="M738,168 L768,164 L788,172 L784,186 L762,190 L742,182 L736,174 Z"/>
  </g>
</svg>
